REM MD5 0f6f1b53f884054c49ee5fdf33fce546
FILE "Defcon 5 (Japan).bin" BINARY
  TRACK 01 MODE2/2352
    INDEX 01 00:00:00
  TRACK 02 AUDIO
    INDEX 00 35:13:69
    INDEX 01 35:15:69
  TRACK 03 AUDIO
    INDEX 00 47:32:46
    INDEX 01 47:34:46
REM LEADOUT 50:41:39
